<svg xmlns="http://www.w3.org/2000/svg" viewBox="0 0 773.44948 1347.45171" preserveAspectRatio="xMinYMid"><defs><style>
#hover:target ~ .a {
	fill: #D7686B;
}
.a {
	fill: #fff;
}
</style></defs><title>emblem</title><g id="hover"></g><path class="a" d="M463.23565,364.97817" transform="translate(0 0)"/><path class="a" d="M349.02638,774.83575c-12.16856,6.4403-21.54089,11.18392-30.71044,16.2919-37.52243,20.90173-69.60288,48.26177-95.162,82.7671-8.26345,11.15594-13.94467,12.05463-26.52806,4.35975-163.69165-100.10073-174.21135-351.318,4.54992-460.68034C340.22,332.51,517.85506,384.50021,584.41718,512.424c12.61464,24.24357,14.21789,61.56653,6.22862,87C563.0633,687.23035,497.93574,736.47278,408.545,757.39208c26.35316-22.56162,47.32973-48.145,54.00635-83.49407,6.72507-35.60619-.38784-67.80735-21.04125-97.07234-31.37113-44.45139-92.02887-62.73961-142.72091-43.49212-55.03432,20.89617-85.18122,71.12321-79.74647,132.86358C224.09109,723.54761,267.60687,760.71583,349.02638,774.83575Z" transform="translate(0 0)"/><path class="a" d="M0,1061.46614c13.14825-88.71235,117.03267-170.40692,204.881-161.08683-27.20852,36.79565-39.77745,78.42253-42.80981,119.94141-29.19157,5.37616-56.70277,8.99306-83.4112,15.77275C52.36384,1042.7685,26.88166,1052.64975,0,1061.46614Z" transform="translate(0 0)"/><path class="a" d="M651.83393,834.47076c-7.40356-6.40088-12.09448-6.39832-20.77588-.84424q-44.17969,28.26526-90.239,53.55518c-17.562,9.66418-36.584,16.67529-58.60937,26.51636,7.56372,1.95178,11.20288,2.86536,14.82837,3.83032,82.33789,21.9126,126.3269,94.196,106.84106,175.15723-17.32861,71.99878-90.42163,118.03259-161.25488,105.88867-59.053-10.12463-110.60059-59.16089-119.20959-117.9176-9.38171-64.03113,22.50818-125.6178,79.246-151.4165,31.47144-14.30981,63.78955-26.76587,95.18628-41.22949,35.697-16.44482,74.28931-29.4342,105.458-52.32129,77.35474-56.801,125.12329-135.00586,143.74609-229.40076,11.155-56.54309,10.40112-112.83734-15.46606-166.52478-19.85181-41.20172-52.42944-71.13312-87.42969-98.4469-36.01782-28.10791-74.14771-53.518-110.00171-81.8205-9.70239-7.65894-16.25244-20.86542-20.74219-32.84058-1.90283-5.07513,4.28662-18.83722,8.42627-19.58026a481.84513,481.84513,0,0,1,66.81787-6.823c25.81958-.97485,51.71338-0.14844,77.57129.19128,5.60547,0.07367,13.21655-.65308,16.43823,2.514,13.39429,13.1676,23.89771,4.69763,33.19434-3.965,7.82349-7.28992,13.39893-16.99213,19.62036-25.16754-3.77563-.55505-11.5188-2.50543-19.304-2.68964-26.00342-.6156-52.03564-0.22083-78.02148-1.17578-4.62939-.17017-9.09009-4.93524-13.62866-7.57855,4.77588-1.89813,9.53687-5.39978,14.33032-5.44476,44.84863-.421,89.70288-0.24963,134.59351-0.24963,0.05249-23.33618-31.13623-55.2912-58.84619-63.95013-0.20728,3.15857-.3999,6.09753-0.60571,9.23315-27.53174.65375-54.55591,0.14124-79.106-12.91406-6.469-3.44006-10.69775-11.08887-15.96265-16.79791-6.62842-7.18756-12.06763-16.43018-20.14771-21.12-16.56543-9.61481-34.64819-16.5827-51.93091-25.00049C485.43257-3.77692,420.57221-2.725,350.90473,3.65313c41.644,9.69318,79.25464,18.44751,116.865,27.20184q-0.642,3.42984-1.28418,6.85974C416.17744,44.455,368.58711,26.005,319.3841,19.17053A569.96977,569.96977,0,0,0,373.945,47.6969c18.96509,8.50995,38.52,15.70508,58.07666,23.58075C407.176,92.50622,382.24507,97.1643,351.01386,90.02832c-17.07275-3.90094-35.13281-5.97253-52.56458-5.12091-18.00549.87964-36.14038,5.31067-52.49048,16.23755,17.50659,8.87537,33.64221,16.2403,48.86316,25.165,6.278,3.681,13.47339,9.93042,15.22327,16.37665,4.19153,15.44019,5.40186,31.6897,7.81714,47.623-28.66675,3.2475-79.07434,32.40063-89.26123,51.37347,44.05969,8.47791,92.03149-1.777,134.06067,26.61652-13.8446,10.47754-46.08521,23.50781-57.91138,32.45764,14.62061,3.83081,48.49792,1.95483,61.75073,1.05682,11.157-.756,16.30664-1.029,20.88135,2.73486L517.08393,406.09063c13.6377,10.99371,68.719,63.13068,83.09717,95.90277,12.24146,27.90179,13.73975,51.63739,13.73608,57.4306a183.27661,183.27661,0,0,1-12.60474,67.02222c-4.488,11.39856-17.658,36.65027-44.82642,66.08337-42.10645,45.61609-96.26978,70.27393-155.501,82.48608-137.72131,28.39514-252.153,175.47-219.84937,337.61011,37.714,189.29626,246.64624,291.78442,417.3855,201.73962,110.35938-58.20142,168.87109-171.75134,153.19336-295.35583C742.24336,944.33734,708.46235,883.43133,651.83393,834.47076ZM580.28144,103.53717c4.9165-3.76227,9.98-6.92181,16.08472-1.89148,3.47192,2.861,6.84546,5.82458,11.051,9.41449-5.22095,2.75653-9.45947,5.07642-13.78052,7.256-6.04834,3.05066-10.57007,1.01276-14.23193-3.80707C576.43427,110.59967,575.8979,106.89166,580.28144,103.53717Z" transform="translate(0 0)"/></svg>
